<?xml version="1.0" standalone="no"?>
<!DOCTYPE svg PUBLIC "-//W3C//DTD SVG 20010904//EN"
 "http://www.w3.org/TR/2001/REC-SVG-20010904/DTD/svg10.dtd">
<svg version="1.0" xmlns="http://www.w3.org/2000/svg"
 width="366.000000pt" height="366.000000pt" viewBox="0 0 366.000000 366.000000"
 preserveAspectRatio="xMidYMid meet">
<metadata>
Created by potrace 1.11, written by Peter Selinger 2001-2013
</metadata>
<g transform="translate(0.000000,366.000000) scale(0.100000,-0.100000)"
fill="#000000" stroke="none">
<path d="M1615 3345 c-167 -25 -381 -93 -498 -158 -23 -13 -60 -34 -81 -46
-172 -98 -353 -269 -481 -455 -105 -154 -195 -358 -225 -511 -6 -33 -16 -80
-21 -105 -44 -220 -22 -496 57 -738 127 -389 368 -676 747 -891 43 -24 55 -36
45 -42 -9 -6 -10 -9 0 -9 6 0 12 -4 12 -10 0 -5 -12 -9 -27 -9 -52 1 -123 -14
-134 -27 -6 -8 -20 -14 -30 -14 -13 0 -19 -7 -19 -25 0 -20 6 -25 38 -31 20
-4 40 -11 43 -16 7 -11 82 -22 288 -43 327 -32 1122 -13 1275 32 28 8 66 17
84 20 18 3 32 11 32 19 0 8 5 14 11 14 17 0 0 18 -34 35 -38 19 -120 38 -159
36 -16 -1 -28 4 -28 10 0 8 -12 10 -36 6 -20 -3 -34 -4 -31 -1 2 3 54 33 115
68 145 84 247 161 358 271 78 78 199 224 192 230 -2 2 -46 10 -98 19 -52 9
-121 24 -153 34 l-59 17 160 -2 c97 -2 173 2 192 8 26 10 38 26 75 103 157
332 195 689 110 1052 -73 313 -273 624 -530 825 -120 95 -314 208 -415 242
-25 8 -69 25 -99 37 -149 58 -471 85 -676 55z m459 -624 c44 -12 134 -48 200
-80 134 -66 226 -140 312 -254 53 -70 121 -209 153 -311 91 -297 11 -651 -199
-881 -20 -22 -51 -59 -69 -82 -38 -50 -89 -87 -186 -138 -161 -84 -271 -110
-460 -109 -111 0 -143 4 -224 28 -205 60 -363 163 -509 332 l-42 49 14 -40
c93 -273 239 -512 447 -730 57 -59 86 -96 78 -100 -6 -4 -15 -2 -19 6 -7 10
-11 10 -23 0 -19 -15 -126 -13 -146 3 -11 8 -13 8 -7 -1 4 -7 3 -13 -2 -13
-16 0 -124 128 -182 214 -166 248 -259 529 -280 851 -5 77 -14 158 -21 180 -7
23 -12 94 -12 165 0 194 46 346 158 529 46 75 171 201 261 263 73 51 158 90
266 123 77 23 94 25 248 21 126 -3 183 -9 244 -25z"/>
</g>
</svg>
